<svg width="81" height="81" viewBox="0 0 81 81" fill="none" xmlns="http://www.w3.org/2000/svg">
  <path fill-rule="evenodd" clip-rule="evenodd" d="M40.5 74.25C59.1244 74.25 74.25 59.1244 74.25 40.5C74.25 21.8756 59.1244 6.75 40.5 6.75C21.8756 6.75 6.75 21.8756 6.75 40.5C6.75 59.1244 21.8756 74.25 40.5 74.25ZM40.5 54V40.5M40.5 27H40.5338" fill="#4CAF50"/>
  <path d="M40.5 74.25C59.1244 74.25 74.25 59.1244 74.25 40.5C74.25 21.8756 59.1244 6.75 40.5 6.75C21.8756 6.75 6.75 21.8756 6.75 40.5C6.75 59.1244 21.8756 74.25 40.5 74.25ZM40.5 54V40.5M40.5 27H40.5338" stroke="#4CAF50" stroke-width="4" stroke-linecap="round" stroke-linejoin="round"/>
</svg> 