<svg width="81" height="81" viewBox="0 0 81 81" fill="none" xmlns="http://www.w3.org/2000/svg">
  <path fill-rule="evenodd" clip-rule="evenodd" d="M71.0125 38.8125C71.0184 43.0902 69.9487 47.2855 67.8863 50.9438C65.4559 55.1547 61.9298 58.7249 57.6509 61.1595C53.372 63.5942 48.5028 65.0424 43.5863 65.2375C39.3086 65.2434 35.1133 64.1737 31.455 62.1113L10.125 67.5L15.6488 46.17C13.5863 42.5973 12.5166 38.4817 12.5225 34.2885C12.7176 29.372 14.1658 24.5028 16.6005 20.2239C19.0351 15.945 22.6053 12.4189 26.8163 9.98849C30.4745 7.92607 34.6699 6.85641 38.9475 6.86224H40.5C47.4144 7.21595 53.9849 9.94374 58.8593 14.7319C63.7337 19.52 66.5753 26.0317 67.0125 32.9231V34.5444V38.8125Z" fill="#4CAF50"/>
  <path d="M71.0125 38.8125C71.0184 43.0902 69.9487 47.2855 67.8863 50.9438C65.4559 55.1547 61.9298 58.7249 57.6509 61.1595C53.372 63.5942 48.5028 65.0424 43.5863 65.2375C39.3086 65.2434 35.1133 64.1737 31.455 62.1113L10.125 67.5L15.6488 46.17C13.5863 42.5973 12.5166 38.4817 12.5225 34.2885C12.7176 29.372 14.1658 24.5028 16.6005 20.2239C19.0351 15.945 22.6053 12.4189 26.8163 9.98849C30.4745 7.92607 34.6699 6.85641 38.9475 6.86224H40.5C47.4144 7.21595 53.9849 9.94374 58.8593 14.7319C63.7337 19.52 66.5753 26.0317 67.0125 32.9231V34.5444V38.8125Z" stroke="#4CAF50" stroke-width="4" stroke-linecap="round" stroke-linejoin="round"/>
</svg> 