<svg width="81" height="81" viewBox="0 0 81 81" fill="none" xmlns="http://www.w3.org/2000/svg">
  <path fill-rule="evenodd" clip-rule="evenodd" d="M40.5 74.25C59.1244 74.25 74.25 59.1244 74.25 40.5C74.25 21.8756 59.1244 6.75 40.5 6.75C21.8756 6.75 6.75 21.8756 6.75 40.5C6.75 59.1244 21.8756 74.25 40.5 74.25ZM40.5 57.375C49.8198 57.375 57.375 49.8198 57.375 40.5C57.375 31.1802 49.8198 23.625 40.5 23.625C31.1802 23.625 23.625 31.1802 23.625 40.5C23.625 49.8198 31.1802 57.375 40.5 57.375ZM40.5 47.25C44.2279 47.25 47.25 44.2279 47.25 40.5C47.25 36.7721 44.2279 33.75 40.5 33.75C36.7721 33.75 33.75 36.7721 33.75 40.5C33.75 44.2279 36.7721 47.25 40.5 47.25Z" fill="#4CAF50"/>
</svg> 