<svg width="81" height="81" viewBox="0 0 81 81" fill="none" xmlns="http://www.w3.org/2000/svg">
  <path fill-rule="evenodd" clip-rule="evenodd" d="M40.5 13.5V20.25V13.5ZM40.5 67.5C51.8218 67.5 61.0125 58.4812 61.0125 47.25V33.75C61.0125 22.5188 51.8218 13.5 40.5 13.5C29.1782 13.5 20.25 22.5188 20.25 33.75V47.25C20.25 58.4812 29.1782 67.5 40.5 67.5ZM30.375 67.5C30.375 72 34.9388 76.5 40.5 76.5C46.0612 76.5 50.625 72 50.625 67.5M61.0125 47.25H20.25" fill="#4CAF50"/>
  <path d="M40.5 6.75V13.5M30.375 67.5C30.375 72 34.9388 76.5 40.5 76.5C46.0612 76.5 50.625 72 50.625 67.5M40.5 67.5C51.8218 67.5 61.0125 58.4812 61.0125 47.25V33.75C61.0125 22.5188 51.8218 13.5 40.5 13.5C29.1782 13.5 20.25 22.5188 20.25 33.75V47.25C20.25 58.4812 29.1782 67.5 40.5 67.5ZM61.0125 47.25H20.25" stroke="#4CAF50" stroke-width="4" stroke-linecap="round"/>
</svg> 