<svg t="1752253715206" class="icon" viewBox="0 0 1024 1024" version="1.1" xmlns="http://www.w3.org/2000/svg" p-id="7137" width="200" height="200"><path d="M451.392 128c178.581333 0 323.370667 144.789333 323.370667 323.392 0 128.746667-75.242667 239.936-184.170667 291.968l43.328 43.349333a55.594667 55.594667 0 0 1-34.901333 94.72l-4.394667 0.170667H308.138667a55.594667 55.594667 0 0 1-42.304-91.648l2.986666-3.242667 43.349334-43.349333C203.264 691.328 128 580.16 128 451.392 128 272.789333 272.789333 128 451.392 128z m72.021333 638.72a324.437333 324.437333 0 0 1-72.021333 8.042667c-24.768 0-48.874667-2.773333-72.042667-8.042667l-50.922666 50.901333h245.909333l-50.922667-50.901333zM451.413333 192C308.138667 192 192 308.138667 192 451.392c0 143.253333 116.138667 259.370667 259.392 259.370667 143.253333 0 259.370667-116.117333 259.370667-259.370667S594.645333 192 451.413333 192z" fill="#021408" p-id="7138"></path><path d="M529.002667 537.429333a32 32 0 1 1 52.906666 36.053334 158.016 158.016 0 0 1-130.816 69.184 158.016 158.016 0 0 1-130.069333-68.16 32 32 0 0 1 52.586667-36.458667 94.016 94.016 0 0 0 77.482666 40.618667c31.573333 0 60.458667-15.616 77.909334-41.237334z" fill="#232323" p-id="7139"></path><path d="M867.754667 288a32 32 0 0 1 3.072 63.850667l-3.072 0.149333h-65.877334a32 32 0 0 1-3.093333-63.850667l3.093333-0.149333h65.877334zM867.754667 181.333333a32 32 0 0 1 3.072 63.850667l-3.072 0.149333H736a32 32 0 0 1-3.072-63.850666L736 181.333333h131.754667z" fill="#021408" p-id="7140"></path></svg>