<svg t="1752253674584" class="icon" viewBox="0 0 1024 1024" version="1.1" xmlns="http://www.w3.org/2000/svg" p-id="6094" width="200" height="200"><path d="M940.110974 79.813435c-63.562537-39.282024-119.871002 56.526752-200.371244 193.495182-26.53704 45.153608-55.703293 94.779452-88.624805 145.513594C518.326794 623.45539 432.4226 803.452229 459.241816 820.855792c26.827203 17.408 156.208804-134.375598 288.996936-339.008776 32.869158-50.651619 66.400277-97.66156 96.971203-140.517824 92.933768-130.285809 158.503487-222.209775 94.901906-261.515757z m-838.333893 841.143237c0-32.379341 135.08104-58.627106 301.716188-58.627105 166.626274 0 301.716187 26.247764 301.716187 58.627105 0 32.379341-135.089913 58.624444-301.716187 58.624444-166.635147 0-301.716187-26.245102-301.716188-58.624444z" fill="#88B6FF" p-id="6095"></path><path d="M397.379438 889.761941c-50.365893 0-91.19279 13.966863-91.19279 31.199168 0 17.232305 40.826898 31.199168 91.19279 31.199168 50.357019 0 91.183917-13.966863 91.183917-31.199168 0-17.232305-40.826898-31.199168-91.183917-31.199168z" fill="#FFFFFF" p-id="6096"></path></svg>