<?xml version="1.0" standalone="no"?><!DOCTYPE svg PUBLIC "-//W3C//DTD SVG 1.1//EN" "http://www.w3.org/Graphics/SVG/1.1/DTD/svg11.dtd"><svg t="1752131606638" class="icon" viewBox="0 0 1025 1024" version="1.1" xmlns="http://www.w3.org/2000/svg" p-id="2597" xmlns:xlink="http://www.w3.org/1999/xlink" width="200.1953125" height="200"><path d="M595.512732 504.795901c-22.473656 15.191252-44.947312 30.265045-67.499274 45.49545-6.49935 4.306798-17.462109 4.306798-23.961459 0-25.723331-17.031429-51.407509-33.9454-77.169993-50.97683l-270.153705 254.531773c9.122582 9.357498 21.80806 15.230405 35.863883 15.230405l638.893936 0c12.215646 0 22.982641-4.894089 31.713696-12.13734L595.512732 504.795901z" fill="#f6a133" p-id="2598"></path><path d="M149.132676 315.884071c-4.306798 7.282404-6.812572 15.621932-6.812572 24.627055l0 378.293492c0 5.011547 1.487803 9.514109 2.858148 14.055823l261.85333-246.701231C321.013076 429.426933 234.994571 372.655502 149.132676 315.884071z" fill="#f6a133" p-id="2599"></path><path d="M881.758201 718.804619 881.758201 340.511126c0-8.731055-2.31001-16.953124-6.49935-24.392139-86.723255 58.376692-173.329051 116.831689-260.013153 175.364992l262.362316 247.171064C880.231246 732.586373 881.758201 725.891259 881.758201 718.804619z" fill="#f6a133" p-id="2600"></path><path d="M196.389998 290.552267c106.573679 70.279116 212.990747 140.24501 319.681884 210.602432 104.185364-70.357421 208.605643-140.323316 312.791007-210.602432L196.389998 290.552267z" fill="#f6a133" p-id="2601"></path></svg>