<?xml version="1.0" standalone="no"?><!DOCTYPE svg PUBLIC "-//W3C//DTD SVG 1.1//EN" "http://www.w3.org/Graphics/SVG/1.1/DTD/svg11.dtd"><svg t="1752135674876" class="icon" viewBox="0 0 1251 1024" version="1.1" xmlns="http://www.w3.org/2000/svg" p-id="29133" xmlns:xlink="http://www.w3.org/1999/xlink" width="244.3359375" height="200"><path d="M356.419787 250.756353l366.618374-236.463165a75.825931 75.825931 0 0 1 116.696108 57.855185l21.496651 275.930561h12.359627a142.097794 142.097794 0 0 1 141.946142 135.538851 156.845937 156.845937 0 0 1-127.008434 161.243842l-7.847984 1.516519 22.520302 238.510464a75.825931 75.825931 0 0 1-108.355255 75.446801l-194.986381-93.758763-221.866673-108.506907a7.582593 7.582593 0 0 0-10.881021 7.54468c13.724493 146.154481 12.321714 232.179-4.322078 258.035642-38.443747-4.170426-166.741221 18.880657-214.435732-58.385966-17.553703-28.434724-4.246252-81.361224-12.511278-184.029534-55.921624-15.544316-70.70768-38.671225-83.143133-88.905904C40.263569 642.09398 33.022193 463.22061 37.912965 309.483536c32.946367-34.00793 124.923221-49.552246 275.968475-46.632948a75.825931 75.825931 0 0 0 42.538347-12.132148z" fill="#FDB344" p-id="29134"></path><path d="M1086.158282 430.553873m37.861007-1.984212l75.722014-3.968422q37.861007-1.984211 39.845218 35.876795l0 0q1.984211 37.861007-35.876796 39.845218l-75.722013 3.968423q-37.861007 1.984211-39.845219-35.876796l0 0q-1.984211-37.861007 35.876796-39.845218Z" fill="#FDB344" p-id="29135"></path><path d="M1067.896033 248.250465m31.431273-21.200661l62.862545-42.401322q31.431273-21.200661 52.631934 10.230611l0 0q21.200661 31.431273-10.230612 52.631934l-62.862545 42.401322q-31.431273 21.200661-52.631934-10.230611l0 0q-21.200661-31.431273 10.230612-52.631934Z" fill="#FDB344" p-id="29136"></path><path d="M1089.038312 651.618928m33.475161 17.799059l66.950323 35.598118q33.475161 17.799059 51.27422-15.676103l0 0q17.799059-33.475161-15.676102-51.27422l-66.950323-35.598118q-33.475161-17.799059-51.27422 15.676102l0 0q-17.799059 33.475161 15.676102 51.274221Z" fill="#FDB344" p-id="29137"></path></svg>