<?xml version="1.0" standalone="no"?><!DOCTYPE svg PUBLIC "-//W3C//DTD SVG 1.1//EN" "http://www.w3.org/Graphics/SVG/1.1/DTD/svg11.dtd"><svg t="1752135633494" class="icon" viewBox="0 0 1024 1024" version="1.1" xmlns="http://www.w3.org/2000/svg" p-id="24574" xmlns:xlink="http://www.w3.org/1999/xlink" width="200" height="200"><path d="M511.31136 1016.0068266666666c-68.65152 0-135.2832-13.46304-198.04928-40.00768-60.5888-25.62688-114.99008-62.30272-161.69344-109.00224-46.69952-46.69952-83.37408-101.09952-109.00096-161.6896C16.02048 642.5386666666666 2.56 575.9095466666666 2.56 507.25674666666663c0-68.65152 13.46176-135.28448 40.00768-198.04928 25.62688-60.5888 62.30144-114.99008 109.00096-161.69088 46.70208-46.7008 101.10336-83.3728 161.69344-109.00224C376.02816 11.967146666666668 442.65984-1.4933333333333332 511.31136-1.4933333333333332c68.6528 0 135.28448 13.46176 198.05056 40.00768 60.5888 25.62688 114.99136 62.30144 161.6896 109.00224 46.69952 46.7008 83.37664 101.09952 109.00224 161.69088 26.5472 62.76608 40.00768 129.39776 40.00768 198.04928 0 68.6528-13.46176 135.28448-40.00768 198.05056-25.62688 60.58752-62.30144 114.99008-109.00224 161.6896-46.69952 46.70208-101.09824 83.37792-161.6896 109.00224-62.7648 26.5472-129.3952 40.00768-198.05056 40.00768z m0-883.3728c-206.56896 0-374.62272 168.05504-374.62272 374.62272s168.05504 374.62272 374.62272 374.62272 374.624-168.05504 374.624-374.62272c0-206.56896-168.05632-374.62272-374.624-374.62272z" fill="#FDB344" p-id="24575"></path><path d="M512.43264 250.92906666666667c141.088 0 255.49952 114.304 255.49952 255.30752s-114.4128 255.30752-255.49952 255.30752-255.49952-114.304-255.49952-255.30752 114.41152-255.30752 255.49952-255.30752z" fill="#FDB344" p-id="24576"></path></svg>