<?xml version="1.0" standalone="no"?><!DOCTYPE svg PUBLIC "-//W3C//DTD SVG 1.1//EN" "http://www.w3.org/Graphics/SVG/1.1/DTD/svg11.dtd"><svg t="1752135612967" class="icon" viewBox="0 0 1088 1024" version="1.1" xmlns="http://www.w3.org/2000/svg" p-id="21816" xmlns:xlink="http://www.w3.org/1999/xlink" width="212.5" height="200"><path d="M544 80a432 432 0 1 1 0 864 432 432 0 0 1 0-864z m0 82.496a349.504 349.504 0 1 0 0 699.008 349.504 349.504 0 0 0 0-699.008z m151.04 231.68a54.016 54.016 0 1 1 0 108.032 54.016 54.016 0 0 1 0-108.032z m-301.248 0a54.016 54.016 0 1 1 0 108.032 54.016 54.016 0 0 1 0-108.032z m46.784 208.384a39.296 39.296 0 0 0-59.008 51.84 215.552 215.552 0 0 0 162.432 73.6c61.888 0 119.68-26.24 160.384-71.296a39.296 39.296 0 0 0-58.304-52.608 136.96 136.96 0 0 1-102.08 45.376 136.96 136.96 0 0 1-103.424-46.912z" fill="#FDB344" p-id="21817"></path></svg>