<?xml version="1.0" standalone="no"?><!DOCTYPE svg PUBLIC "-//W3C//DTD SVG 1.1//EN" "http://www.w3.org/Graphics/SVG/1.1/DTD/svg11.dtd"><svg t="1752131578356" class="icon" viewBox="0 0 1024 1024" version="1.1" xmlns="http://www.w3.org/2000/svg" p-id="1860" xmlns:xlink="http://www.w3.org/1999/xlink" width="200" height="200"><path d="M789.5 820.8h-535c-39.1 0-71.1-32-71.1-71.1V403.5c0-39.1 32-71.1 71.1-71.1h535c39.1 0 71.1 32 71.1 71.1v346.3c0 39-32 71-71.1 71z" fill="#FFE4B3" p-id="1861"></path><path d="M759 805.6H224c-47.6 0-86.3-38.7-86.3-86.3V373c0-47.6 38.7-86.3 86.3-86.3h535c47.6 0 86.3 38.7 86.3 86.3v346.3c0 47.6-38.7 86.3-86.3 86.3zM224.1 317.2c-30.8 0-55.8 25-55.8 55.8v346.3c0 30.8 25 55.8 55.8 55.8h535c30.8 0 55.8-25 55.8-55.8V373c0-30.8-25-55.8-55.8-55.8h-535z" fill="#EFA716" p-id="1862"></path><path d="M829.1 632.4H689.3c-47.6 0-86.3-38.7-86.3-86.3 0-47.6 38.7-86.3 86.3-86.3h139.8v30.5H689.3c-30.8 0-55.8 25-55.8 55.8 0 30.8 25 55.8 55.8 55.8h139.8v30.5zM694.4 295.9L684 192.6c-1.2-12.4-7.3-23.6-17-31.6s-21.9-11.7-34.3-10.4l-307 30.8c-12.4 1.2-23.6 7.3-31.6 17s-11.7 21.9-10.4 34.3l6 59.7-30.3 3-6-59.7c-2.1-20.5 4-40.6 17.2-56.7s31.6-26 52.1-28.1l307-30.8c20.5-2.1 40.6 4 56.7 17.2 16 13.1 26 31.6 28.1 52.1l10.4 103.3-30.5 3.2z" fill="#EFA716" p-id="1863"></path><path d="M686.8 546.2m-30 0a30 30 0 1 0 60 0 30 30 0 1 0-60 0Z" fill="#EFA716" p-id="1864"></path></svg>